# xmcd
# 
# Track frame offsets:
#     150
#     10607
#     19740
#     24320
#     32097
#     38715
#     45172
#     60867
#     75895
#     90700
#     96377
#     106452
#     116045
#     126850
#     132522
#     142440
#     156355
#     158990
#     160020
#     162852
#     165287
#     167952
#     172782
#     182032
# 
# Disc length: 2701
# 
# Revision: 2
# Processed by: cddbd v1.5.2PL0 Copyright (c) Steve Scherf et al.
# Submitted via: fre:ac v1.0.31
# 
DISCID=240a8b18
DTITLE=Dan Bigras - J'en suis!
DYEAR=1997
DGENRE=Soundtrack
TTITLE0=J'te ferai pas mal et Breen Leboeuf
TTITLE1=NocetristesseLuce Dufault
TTITLE2=Tango des promesses
TTITLE3=Cupidoedipe
TTITLE4=Chic Shop
TTITLE5=After Shop
TTITLE6=Exotaxi
TTITLE7=La Sodoma
TTITLE8=Variations familiales
TTITLE9=Digue du culte
TTITLE10=Jazz Muzak
TTITLE11=Hot
TTITLE12=Crooner la cruise
TTITLE13=Patchoul la cruise
TTITLE14=Duel du culte
TTITLE15=Resthup
TTITLE16=Les Jambes débarquent
TTITLE17=Le Macho contrataque
TTITLE18=Kiltatout
TTITLE19=Armoire à neige
TTITLE20=J'te ferai pas mal (Instrumentale)
TTITLE21=Le Glaive au coeur
TTITLE22=Dîner de têtes
TTITLE23=À voile ou à moteur
EXTD=Musique originale du film
EXTT0=Musique originale du film
EXTT1=
EXTT2=
EXTT3=
EXTT4=
EXTT5=
EXTT6=
EXTT7=
EXTT8=
EXTT9=
EXTT10=
EXTT11=
EXTT12=
EXTT13=
EXTT14=
EXTT15=
EXTT16=
EXTT17=
EXTT18=
EXTT19=
EXTT20=
EXTT21=
EXTT22=
EXTT23=
PLAYORDER=
